<?xml version="1.0" encoding="UTF-8"?>
<svg version="1.1" xmlns="http://www.w3.org/2000/svg" width="2000" height="2373">
<path d="M0 0 C2.41286123 -0.00115485 4.82572228 -0.00274481 7.23858297 -0.00472724 C12.44659381 -0.0080103 17.6545952 -0.00824945 22.86260605 -0.00568008 C30.60879024 -0.00186913 38.3549658 -0.00384615 46.10114996 -0.00688839 C59.9488425 -0.01213503 73.79653042 -0.01170499 87.6442234 -0.00880948 C99.7769292 -0.00628539 111.90963331 -0.00564115 124.04233932 -0.00683212 C125.25357134 -0.0069467 125.25357134 -0.0069467 126.48927269 -0.00706359 C129.76807681 -0.00737499 133.04688092 -0.00769339 136.32568503 -0.00802336 C167.05466531 -0.01107876 197.78364266 -0.00831577 228.51262249 -0.00292646 C255.7184894 0.00180878 282.92435163 0.00140245 310.13021851 -0.00338745 C340.77286233 -0.00876454 371.41550356 -0.01085211 402.05814779 -0.00777519 C405.33750558 -0.00745454 408.61686337 -0.00714169 411.89622116 -0.00683212 C412.70353795 -0.00675305 413.51085473 -0.00667397 414.34263566 -0.00659249 C426.44226752 -0.00546325 438.54189749 -0.00676999 450.64152908 -0.00931168 C464.44045765 -0.01219607 478.2393809 -0.01140391 492.03830881 -0.00603093 C499.05930855 -0.00338598 506.08029966 -0.00221743 513.10129929 -0.00568008 C554.7192164 -0.02387442 596.34238603 0.19150218 637.91000366 2.47073364 C639.26200867 2.54427063 639.26200867 2.54427063 640.6413269 2.61929321 C741.41808778 8.23060489 841.92446376 21.56067795 1176.44125366 147.12698364 C1177.66014282 147.85546509 1177.66014282 147.85546509 1178.90365601 148.59866333 C1210.00990188 167.22461152 1239.79988746 187.91301064 1268.44125366 210.12698364 C1269.06515991 210.60909302 1269.68906616 211.09120239 1270.33187866 211.58792114 C1277.83175698 217.38910907 1285.15702592 223.35569357 1292.36312866 229.51760864 C1295.15791555 231.90170456 1298.01176411 234.20503879 1300.87875366 236.50198364 C1305.89300391 240.57789466 1310.62167653 244.91551158 1315.31991577 249.34719849 C1318.29155576 252.14839529 1321.29631437 254.89302296 1324.37875366 257.57229614 C1335.18381615 266.9728429 1345.42616165 277.01965605 1355.56625366 287.12698364 C1356.34718384 287.90332153 1357.12811401 288.67965942 1357.93270874 289.47952271 C1362.02876325 293.58660828 1365.95041133 297.78005709 1369.73471069 302.17532349 C1372.66222239 305.5233247 1375.75083229 308.71828769 1378.81625366 311.93948364 C1383.92221604 317.34129849 1388.77859214 322.81570342 1393.41000366 328.63088989 C1395.46341535 331.15421695 1397.61313423 333.54630637 1399.81625366 335.93948364 C1404.33778878 340.90768687 1408.45277572 346.13501941 1412.56625366 351.43948364 C1414.93127194 354.48758622 1417.3450552 357.49226259 1419.77548218 360.48831177 C1478.70665549 433.28850605 1523.46873337 518.11749984 1649.62875366 1042.75198364 C1649.74697479 1044.42569031 1649.74697479 1044.42569031 1649.86758423 1046.13320923 C1650.47200148 1054.79358774 1650.98077957 1063.45793402 1651.44125366 1072.12698364 C1651.4846563 1072.93358051 1651.52805893 1073.74017738 1651.57277679 1074.57121658 C1653.45445908 1109.84340505 1653.75785915 1145.08259766 1653.69839221 1180.39349794 C1653.69086505 1185.37849924 1653.69356499 1190.36342083 1653.70199585 1195.34841919 C1653.76335607 1232.64884457 1653.20821745 1269.85979414 1651.44125366 1307.12698364 C1651.40237534 1307.95876255 1651.36349701 1308.79054146 1651.32344055 1309.64752579 C1650.8576073 1319.58307219 1650.31018531 1329.51220095 1649.69125366 1339.43948364 C1649.60770349 1340.79737263 1649.52416708 1342.15526246 1649.44064331 1343.51315308 C1644.35095086 1425.71315981 1635.02266855 1508.01746606 1615.44125366 1605.12698364 C1615.26269836 1605.98862122 1615.08414307 1606.85025879 1614.900177 1607.73800659 C1597.10031123 1693.60942741 1571.3679832 1777.38174483 1498.89926147 1930.57376099 C1497.13698345 1933.65981316 1495.43876689 1936.77770953 1493.74398804 1939.90115356 C1477.51337947 1969.71446668 1458.03756582 1998.16255377 1437.44125366 2025.12698364 C1437.04196655 2025.65243774 1436.64267944 2026.17789185 1436.23129272 2026.7192688 C1428.29727807 2037.15859878 1420.0333242 2047.29589245 1411.5340271 2057.28005981 C1408.55128361 2060.79006122 1405.63932205 2064.34866446 1402.75375366 2067.93948364 C1399.55957071 2071.86815786 1396.23071098 2075.49787637 1392.55844116 2078.98245239 C1390.71515725 2080.84954256 1389.01995114 2082.75951819 1387.31259155 2084.74905396 C1383.50370893 2089.11463978 1379.4840288 2093.22880781 1375.38265991 2097.31838989 C1374.63467636 2098.06733017 1373.88669281 2098.81627045 1373.11604309 2099.58790588 C1371.54492902 2101.15969589 1369.97256974 2102.73024213 1368.39901733 2104.29959106 C1366.01025521 2106.68299668 1363.62687921 2109.07169432 1361.24398804 2111.46096802 C1359.70719916 2112.99709601 1358.17010006 2114.53291373 1356.63265991 2116.06838989 C1355.9303273 2116.77274673 1355.22799469 2117.47710358 1354.50437927 2118.20280457 C1350.5200603 2122.16858673 1346.43831835 2125.96267779 1342.17678833 2129.62956238 C1339.77736141 2131.69979063 1337.45641448 2133.85170289 1335.12875366 2136.00198364 C1330.24788557 2140.44884842 1325.21749842 2144.65127265 1320.07846069 2148.79446411 C1318.21737298 2150.30919968 1316.3736816 2151.8437015 1314.53109741 2153.38088989 C1305.70114697 2160.7373059 1296.74121557 2167.84357271 1287.4715271 2174.63821411 C1286.12077352 2175.62870176 1284.77244797 2176.62250933 1283.42660522 2177.61965942 C1246.62005044 2204.88540549 1207.27515741 2228.44075171 1166.44125366 2249.12698364 C1165.66104858 2249.52465942 1164.88084351 2249.92233521 1164.07699585 2250.33206177 C1160.23539145 2252.28981981 1156.3804498 2254.2170153 1152.50765991 2256.11233521 C1151.04435791 2256.83084691 1149.58366886 2257.55469141 1148.12484741 2258.28225708 C1069.06913083 2297.65546804 982.07334155 2322.32238203 694.44125366 2364.12698364 C693.5953064 2364.17683411 692.74935913 2364.22668457 691.8777771 2364.27804565 C671.70028399 2365.45715585 651.5122389 2366.26010229 631.30453491 2366.67385864 C630.26806131 2366.69510677 629.23158772 2366.7163549 628.16370583 2366.73824692 C591.88294466 2367.44820736 555.58819861 2367.2770078 519.30230105 2367.25555289 C511.126377 2367.25122449 502.95046845 2367.2543067 494.77454537 2367.25918114 C486.72882646 2367.26377763 478.68311405 2367.26433216 470.63739425 2367.26174247 C465.898469 2367.26021808 461.15955401 2367.25987614 456.4206295 2367.26327896 C423.55335879 2367.28366188 390.69340731 2366.8834791 357.87875366 2364.87698364 C356.83693939 2364.81451447 355.79512512 2364.75204529 354.72174072 2364.68768311 C286.18805734 2360.52855564 218.38489924 2351.4168718 151.44125366 2336.12698364 C150.75716431 2335.97078552 150.07307495 2335.8145874 149.36825562 2335.65365601 C90.85928664 2322.22629758 34.24796557 2300.53527107 -17.55874634 2270.12698364 C-18.40984985 2269.6337561 -19.26095337 2269.14052856 -20.1378479 2268.63235474 C-46.45023211 2253.37769142 -71.20255255 2235.58526457 -94.55874634 2216.12698364 C-95.13318481 2215.65164185 -95.70762329 2215.17630005 -96.29946899 2214.68655396 C-108.41449875 2204.65330126 -119.79135473 2193.97671134 -130.93374634 2182.87698364 C-131.77816284 2182.03723999 -132.62257935 2181.19749634 -133.49258423 2180.33230591 C-138.3881266 2175.42415491 -143.05680806 2170.39675951 -147.55874634 2165.12698364 C-148.50807281 2164.04390436 -149.45854071 2162.96182417 -150.41030884 2161.88088989 C-158.211054 2152.93792754 -165.47991654 2143.64896803 -172.55874634 2134.12698364 C-173.09644653 2133.40494751 -173.63414673 2132.68291138 -174.18814087 2131.93899536 C-213.10622279 2079.45163931 -242.3097045 2019.78718429 -263.55874634 1958.12698364 C-263.78477539 1957.47187805 -264.01080444 1956.81677246 -264.24368286 1956.14181519 C-293.21837553 1871.87940748 -306.29658382 1782.92187843 -313.30874634 1682.00198364 C-313.39749527 1680.61441864 -313.39749527 1680.61441864 -313.48803711 1679.19882202 C-315.11943334 1653.25889424 -315.8073968 1627.29876827 -316.18374634 1601.31448364 C-316.2000988 1600.19551256 -316.2000988 1600.19551256 -316.21678162 1599.053936 C-317.61585933 1502.03132472 -311.86773502 1404.75473095 -203.55874634 1056.12698364 C-203.10000122 1055.18081177 -202.6412561 1054.23463989 -202.16860962 1053.25979614 C-184.8712824 1017.68099416 -164.24200672 983.52213849 -141.55874634 951.12698364 C-141.13206665 950.51725708 -140.70538696 949.90753052 -140.26577759 949.27932739 C-123.51625591 925.41770112 -104.90000399 902.99462671 -85.01187134 881.69338989 C-83.59940963 880.17081692 -82.20180538 878.63605893 -80.80874634 877.09573364 C-74.64983584 870.30549974 -68.28074941 863.74461611 -61.80874634 857.25198364 C-61.01653687 856.45518188 -60.22432739 855.65838013 -59.40811157 854.83743286 C-55.17602482 850.61641444 -50.86322524 846.55805727 -46.33218384 842.65969849 C-43.97717736 840.62435561 -41.71007001 838.49960057 -39.43374634 836.37698364 C-33.63138153 831.08753506 -27.52830571 826.25745993 -21.30532837 821.47512817 C-19.62934507 820.1814771 -17.96558221 818.87371058 -16.30484009 817.56057739 C5.39365372 800.47991698 30.49985503 784.17096118 57.44125366 777.12698364 C57.11689331 776.13154541 57.11689331 776.13154541 56.78598022 775.11599731 C53.48617855 764.71081409 50.7533788 754.16624664 48.01254272 743.60281372 C47.18290665 740.40733375 46.34751785 737.21339469 45.51156616 734.01956177 C44.9825813 731.9890511 44.4539232 729.95845527 43.92562866 727.92776489 C43.67569153 726.97267532 43.42575439 726.01758575 43.16824341 725.03355408 C42.82723602 723.71528877 42.82723602 723.71528877 42.4793396 722.37039185 C42.27822571 721.59685867 42.07711182 720.8233255 41.86990356 720.02635193 C41.44125366 718.12698364 41.44125366 718.12698364 41.44125366 716.12698364 C40.51957901 716.13142487 39.59790436 716.13586609 38.64830017 716.14044189 C29.84112907 716.18099003 21.03399056 716.21120256 12.22674656 716.23060799 C7.70193471 716.24092071 3.17720176 716.25484208 -1.3475647 716.27786255 C-21.50917965 716.37762344 -41.49376236 716.38869582 -61.55874634 714.12698364 C-62.83209839 713.98615356 -64.10545044 713.84532349 -65.41738892 713.70022583 C-68.3726882 713.33493639 -71.30659403 712.91324531 -74.24624634 712.43948364 C-75.29836304 712.27142212 -76.35047974 712.1033606 -77.43447876 711.9302063 C-132.77686935 702.68554373 -186.68930671 680.89767209 -227.75015259 641.78323364 C-229.94881335 639.70383264 -232.16891751 637.74326356 -234.49624634 635.81448364 C-244.55454644 627.09871088 -253.37346029 616.57182763 -261.55874634 606.12698364 C-262.35667603 605.12409302 -263.15460571 604.12120239 -263.97671509 603.08792114 C-274.34934952 589.93968214 -283.10975666 575.93425536 -291.3097229 561.34622192 C-292.08195024 559.97414481 -292.85898295 558.60474489 -293.64370728 557.23977661 C-325.46700369 501.86724084 -338.5344898 432.3088783 -338.76187134 368.88479614 C-338.76888565 367.57001282 -338.77589996 366.25522949 -338.78312683 364.90060425 C-338.8025117 360.68439239 -338.80756012 356.46823558 -338.80874634 352.25198364 C-338.80918819 351.5342704 -338.80963005 350.81655716 -338.8100853 350.07709503 C-338.81690684 328.95753182 -338.64986149 308.0682425 -335.55874634 287.12698364 C-335.38182251 285.8809436 -335.20489868 284.63490356 -335.02261353 283.35110474 C-325.14831775 215.24575037 -299.57796097 149.52599183 -252.05484009 98.80667114 C-249.93962713 96.53587914 -247.89153218 94.23169322 -245.87124634 91.87698364 C-239.95197848 85.0698256 -233.46070367 78.92376099 -226.55874634 73.12698364 C-225.76283081 72.45240112 -225.76283081 72.45240112 -224.95083618 71.76419067 C-177.50196024 31.70691334 -120.13795642 9.41999092 -58.68374634 2.37698364 C-57.67650513 2.26129028 -56.66926392 2.14559692 -55.63150024 2.02639771 C-37.14278678 0.08827863 -18.56940103 -0.01959547 0 0 Z M339.44125366 669.12698364 C338.76707397 669.61682739 338.09289429 670.10667114 337.39828491 670.61135864 C317.75371876 685.89546045 310.28049104 714.09610497 306.98422241 737.50198364 C305.74563363 747.63635311 305.2951317 757.66787259 305.3098259 767.87424088 C305.30817225 769.22825259 305.30608415 770.58226383 305.30360579 771.93627429 C305.29808103 775.63996267 305.2987038 779.34362775 305.30038339 783.04731892 C305.30111829 787.08339129 305.29608267 791.11945728 305.29180837 795.15552688 C305.28424912 803.15300858 305.28203636 811.15048359 305.28147931 819.14796849 C305.28056361 828.73081971 305.27388996 838.31366479 305.26713249 847.89651336 C305.25109112 871.05531846 305.24517128 894.21412288 305.24038374 917.37293254 C305.23804587 928.33418844 305.23444301 939.29544382 305.23068836 950.25669932 C305.21785436 987.79736441 305.20713516 1025.33802921 305.20368576 1062.87869644 C305.20346413 1065.23420548 305.20324235 1067.58971452 305.20302041 1069.94522355 C305.20279977 1072.30633536 305.20257929 1074.66744716 305.20235896 1077.02855897 C305.20191642 1081.76514324 305.2014693 1086.5017275 305.20101929 1091.23831177 C305.2009099 1092.41270464 305.20080051 1093.58709752 305.2006878 1094.79707805 C305.19705823 1132.86556499 305.18114116 1170.93403287 305.15782892 1209.0025125 C305.13321202 1249.27529912 305.11951206 1289.54807485 305.11831784 1329.82086921 C305.1181464 1334.24504837 305.11793097 1338.66922752 305.11768341 1343.09340668 C305.11762764 1344.1827194 305.11757187 1345.27203212 305.11751441 1346.39435432 C305.11636558 1363.8958619 305.10535788 1381.39734985 305.09079636 1398.89885081 C305.07640314 1416.5029888 305.0732103 1434.10710175 305.08123633 1451.71124402 C305.08567929 1462.15756607 305.08188558 1472.60380706 305.06599783 1483.0501184 C305.05619866 1490.04354951 305.05747284 1497.03692426 305.06743405 1504.03035494 C305.07279072 1508.00483298 305.07365217 1511.97915616 305.06092533 1515.95362094 C304.95251139 1552.14356802 306.58094661 1590.77261451 332.50375366 1618.68948364 C361.00265906 1645.92177102 402.29796426 1648.30265373 439.59017944 1648.25637817 C441.45517002 1648.25773704 443.32016033 1648.25951969 445.18515015 1648.26168823 C450.20672479 1648.26620925 455.22827865 1648.26449395 460.24985361 1648.26130915 C465.55021623 1648.2587525 470.85057724 1648.26113268 476.15093994 1648.26269531 C485.06265578 1648.26450967 493.97436331 1648.26213233 502.88607788 1648.25735474 C513.10821967 1648.25193698 523.33034143 1648.25365958 533.55248272 1648.25918114 C542.39396715 1648.26376147 551.23544565 1648.26433837 560.07693088 1648.26174247 C565.32808628 1648.26020344 570.57923236 1648.25991872 575.83038712 1648.26327896 C618.74712779 1648.39601041 618.74712779 1648.39601041 661.56625366 1645.81448364 C662.26250854 1645.7500708 662.95876343 1645.68565796 663.67611694 1645.61929321 C698.98416932 1642.3361595 733.69199842 1636.11705439 767.44125366 1625.12698364 C768.35536011 1624.83323853 769.26946655 1624.53949341 770.21127319 1624.23684692 C807.2216268 1612.23774393 840.65161284 1592.99238056 870.44125366 1568.12698364 C871.40547241 1567.34967896 872.36969116 1566.57237427 873.36312866 1565.77151489 C881.80351394 1558.86323014 889.53154817 1551.25250383 897.25375366 1543.56448364 C897.78945984 1543.03395386 898.32516602 1542.50342407 898.87710571 1541.95681763 C905.87237312 1535.01485515 912.30626803 1527.85557603 918.44125366 1520.12698364 C919.3045184 1519.09932984 920.17292388 1518.07592594 921.05062866 1517.06057739 C962.64118841 1468.56355608 986.48496349 1408.24934415 1002.44125366 1347.12698364 C1002.74418335 1345.97133911 1003.04711304 1344.81569458 1003.35922241 1343.62503052 C1014.76717114 1299.61226764 1021.19583582 1254.43930547 1024.44125366 1209.12698364 C1024.53696655 1207.88593872 1024.63267944 1206.6448938 1024.73129272 1205.36624146 C1025.88430294 1189.03171951 1025.68716578 1172.61873926 1025.69125366 1156.25198364 C1025.69169552 1155.4415863 1025.69213737 1154.63118896 1025.69259262 1153.79623413 C1025.70020436 1127.13393196 1025.14581895 1100.67279377 1022.44125366 1074.12698364 C1022.31750366 1072.88141693 1022.31750366 1072.88141693 1022.19125366 1071.61068726 C1015.23924626 1001.90845725 1000.95358989 929.0183594 971.44125366 865.12698364 C970.7487854 863.62675659 970.7487854 863.62675659 970.04232788 862.09622192 C956.07211315 832.04021062 939.50553951 803.80297704 918.44125366 778.12698364 C917.75676147 777.26846802 917.07226929 776.40995239 916.36703491 775.52542114 C911.24259447 769.14057075 905.81772877 763.11432901 900.23031616 757.13870239 C897.98338081 754.73019811 895.8207347 752.26554916 893.69125366 749.75198364 C890.89782996 746.52103575 887.85414133 743.78885013 884.59750366 741.03323364 C882.15687079 738.8755727 879.90314727 736.58395684 877.62875366 734.25198364 C872.53988071 729.11663697 867.1107392 724.60289328 861.44125366 720.12698364 C860.34682351 719.24240782 859.25309913 718.35695824 858.16000366 717.47073364 C849.91399347 710.82932073 841.3928377 704.77966363 832.44125366 699.12698364 C831.82008667 698.73188599 831.19891968 698.33678833 830.55892944 697.92971802 C809.59766157 684.72968228 786.93305528 674.8314917 763.44125366 667.12698364 C762.50958374 666.81567505 761.57791382 666.50436646 760.61801147 666.18362427 C704.82608075 647.68492119 647.03803915 644.62974918 588.7356205 644.72400713 C582.42619097 644.731746 576.11677275 644.72452095 569.80734253 644.71984863 C558.57033044 644.71409433 547.33337588 644.72324303 536.09637755 644.73862664 C525.9598365 644.75207427 515.82339842 644.74964684 505.68685913 644.73587036 C493.81086802 644.71973656 481.93492644 644.71387775 470.05892229 644.72270715 C463.80956588 644.72734539 457.56028002 644.72811469 451.31092834 644.71809769 C445.44667901 644.70934828 439.58262215 644.71559346 433.71839333 644.73278046 C431.58570994 644.7367002 429.45300995 644.73569027 427.32033348 644.72899246 C395.82967304 644.63930616 364.97951281 649.62109971 339.44125366 669.12698364 Z " fill="#000B7F" transform="translate(342.5587463378906,2.873016357421875)"/>
</svg>
